<svg xmlns="http://www.w3.org/2000/svg" xmlns:svg="http://www.w3.org/2000/svg" id="svg8" width="352.376" height="389.974" version="1.1" viewBox="0 0 93.233 103.181"><defs id="defs2"><clipPath id="clipPath20" clipPathUnits="userSpaceOnUse"><path id="path18" d="M 0,8382.86 V 0 h 14670 v 8382.86 z"/></clipPath><clipPath id="clipPath424" clipPathUnits="userSpaceOnUse"><path id="path422" d="m 2214.63,3080.89 c -12.14,0 -24.27,0.59 -36.39,1.78 -27.16,2.66 -57.08,8.57 -84.58,20.5 0,0 -55.48,21.5 -60.56,36.15 l -53.39,-16.89 -15.17,54.86 644.46,-13.72 -170.41,-44.69 -143.99,-29.71 c -26.35,-5.43 -53.15,-8.28 -79.97,-8.28"/></clipPath><clipPath id="clipPath434" clipPathUnits="userSpaceOnUse"><path id="path432" d="M 0,8382.86 V 0 h 14670 v 8382.86 z"/></clipPath><clipPath id="clipPath82" clipPathUnits="userSpaceOnUse"><path id="path80-1" d="M 4300,7250 H 2200 v 80 h 4420 v -60 H 4300 v -20"/></clipPath><clipPath id="clipPath94" clipPathUnits="userSpaceOnUse"><path id="path92-4" d="m 8710,1960 h -300 v 5310 h 300 V 1960"/></clipPath><clipPath id="clipPath106" clipPathUnits="userSpaceOnUse"><path id="path104-8" d="M 8410,1960 H 4410 v 60 h 2210 v 280.17 h 955.98 V 7048.41 H 6620 V 7270 H 8410 V 1960"/></clipPath><clipPath id="clipPath118" clipPathUnits="userSpaceOnUse"><path id="path116-9" d="M 7575.98,2300.17 H 6620 v 120.27 h 795.58 V 6928.13 H 6620 v 120.28 h 955.98 V 2300.17"/></clipPath><clipPath id="clipPath130" clipPathUnits="userSpaceOnUse"><path id="path128-5" d="m 6620,6331.54 v 596.59 h 795.58 L 6620,6331.54"/></clipPath><clipPath id="clipPath142" clipPathUnits="userSpaceOnUse"><path id="path140-3" d="M 7415.58,2420.44 H 6620 v 3911.1 l 795.58,596.59 V 2420.44"/></clipPath><clipPath id="clipPath154" clipPathUnits="userSpaceOnUse"><path id="path152-0" d="M 6620,2020 H 4410 v 280.17 H 6620 V 2020"/></clipPath><clipPath id="clipPath166" clipPathUnits="userSpaceOnUse"><path id="path164-7" d="M 6620,2300.17 H 4410 v 120.27 h 2210 v -120.27"/></clipPath><clipPath id="clipPath178" clipPathUnits="userSpaceOnUse"><path id="path176-7" d="M 6620,7048.41 H 4410 V 7250 h -110 v 20 h 2320 v -221.59"/></clipPath><clipPath id="clipPath190" clipPathUnits="userSpaceOnUse"><path id="path188-8" d="M 6620,6928.13 H 4410 v 120.28 h 2210 v -120.28"/></clipPath><clipPath id="clipPath202" clipPathUnits="userSpaceOnUse"><path id="path200-1" d="M 4410,4674.29 V 6928.13 H 6620 V 6331.54 L 4410,4674.29"/></clipPath><clipPath id="clipPath208" clipPathUnits="userSpaceOnUse"><path id="path206-1" d="M 4405.63,6933.92 V 5315.96 h 1586.83 v 1617.96 z"/></clipPath><clipPath id="clipPath220" clipPathUnits="userSpaceOnUse"><path id="path218-1" d="M 4410,4674.29 V 6928.13 H 6620 V 6331.54 L 4410,4674.29"/></clipPath><clipPath id="clipPath226" clipPathUnits="userSpaceOnUse"><path id="path224-7" d="M 5987.66,6933.92 V 5961.7 h 636.17 v 972.22 z"/></clipPath><clipPath id="clipPath238" clipPathUnits="userSpaceOnUse"><path id="path236-8" d="M 4410,4674.29 V 6928.13 H 6620 V 6331.54 L 4410,4674.29"/></clipPath><clipPath id="clipPath244" clipPathUnits="userSpaceOnUse"><path id="path242-8" d="m 5987.66,5966.51 v -328.88 h 319.29 v 328.88 z"/></clipPath><clipPath id="clipPath256" clipPathUnits="userSpaceOnUse"><path id="path254-1" d="M 4410,4674.29 V 6928.13 H 6620 V 6331.54 L 4410,4674.29"/></clipPath><clipPath id="clipPath262" clipPathUnits="userSpaceOnUse"><path id="path260-3" d="m 4405.63,5320.76 v -650.55 h 636.17 v 650.55 z"/></clipPath><clipPath id="clipPath274" clipPathUnits="userSpaceOnUse"><path id="path272-0" d="M 4410,4674.29 V 6928.13 H 6620 V 6331.54 L 4410,4674.29"/></clipPath><clipPath id="clipPath280" clipPathUnits="userSpaceOnUse"><path id="path278-5" d="m 5037,5320.76 v -328.87 h 321.69 v 328.87 z"/></clipPath><clipPath id="clipPath292" clipPathUnits="userSpaceOnUse"><path id="path290-7" d="M 6620,2420.44 H 4410 v 2253.85 l 2210,1657.25 v -3911.1"/></clipPath><clipPath id="clipPath298" clipPathUnits="userSpaceOnUse"><path id="path296-7" d="M 5987.66,6336.19 V 2416.1 h 636.17 v 3920.09 z"/></clipPath><clipPath id="clipPath310" clipPathUnits="userSpaceOnUse"><path id="path308-7" d="M 6620,2420.44 H 4410 v 2253.85 l 2210,1657.25 v -3911.1"/></clipPath><clipPath id="clipPath316" clipPathUnits="userSpaceOnUse"><path id="path314-6" d="M 5670.77,5980.91 V 2416.1 h 321.69 v 3564.81 z"/></clipPath><clipPath id="clipPath328" clipPathUnits="userSpaceOnUse"><path id="path326-2" d="M 6620,2420.44 H 4410 v 2253.85 l 2210,1657.25 v -3911.1"/></clipPath><clipPath id="clipPath334" clipPathUnits="userSpaceOnUse"><path id="path332-6" d="M 5037,5623.23 V 2416.1 h 638.57 v 3207.13 z"/></clipPath><clipPath id="clipPath346" clipPathUnits="userSpaceOnUse"><path id="path344-2" d="M 6620,2420.44 H 4410 v 2253.85 l 2210,1657.25 v -3911.1"/></clipPath><clipPath id="clipPath352" clipPathUnits="userSpaceOnUse"><path id="path350-0" d="M 4722.51,5267.95 V 2416.1 h 319.29 v 2851.85 z"/></clipPath><clipPath id="clipPath364" clipPathUnits="userSpaceOnUse"><path id="path362-1" d="M 6620,2420.44 H 4410 v 2253.85 l 2210,1657.25 v -3911.1"/></clipPath><clipPath id="clipPath370" clipPathUnits="userSpaceOnUse"><path id="path368-8" d="M 4405.63,4912.67 V 2416.1 h 321.69 v 2496.57 z"/></clipPath><clipPath id="clipPath382" clipPathUnits="userSpaceOnUse"><path id="path380-7" d="M 410,1950 H 0 V 7250 H 410 V 1950"/></clipPath><clipPath id="clipPath394" clipPathUnits="userSpaceOnUse"><path id="path392-0" d="M 4410,1950 H 410 V 7250 H 2200 V 7048.41 H 1244.03 V 2300.17 H 2200 V 2020 h 2100 v -60 h 110 v -10"/></clipPath><clipPath id="clipPath406" clipPathUnits="userSpaceOnUse"><path id="path404-3" d="M 2200,2300.17 H 1244.03 V 7048.41 H 2200 V 6928.13 H 1404.42 V 2420.44 H 2200 v -120.27"/></clipPath><clipPath id="clipPath418" clipPathUnits="userSpaceOnUse"><path id="path416-7" d="m 1404.42,2420.44 v 0 4507.69 H 2200 V 3017.04 l -795.58,-596.6"/></clipPath><clipPath id="clipPath430" clipPathUnits="userSpaceOnUse"><path id="path428" d="m 2200,2420.44 h -795.58 l 795.58,596.6 v -596.6"/></clipPath><clipPath id="clipPath442" clipPathUnits="userSpaceOnUse"><path id="path440-3" d="M 4300,2020 H 2200 v 280.17 H 4300 V 2020"/></clipPath><clipPath id="clipPath454" clipPathUnits="userSpaceOnUse"><path id="path452-1" d="M 4300,2300.17 H 2200 v 120.27 h 2100 v -120.27"/></clipPath><clipPath id="clipPath466" clipPathUnits="userSpaceOnUse"><path id="path464-5" d="M 4300,7048.41 H 2200 V 7250 h 2100 v -201.59"/></clipPath><clipPath id="clipPath478" clipPathUnits="userSpaceOnUse"><path id="path476-3" d="M 4300,6928.13 H 2200 v 120.28 h 2100 v -120.28"/></clipPath><clipPath id="clipPath490" clipPathUnits="userSpaceOnUse"><path id="path488-4" d="M 2200,4792 H 4300 V 6929 H 2200 Z"/></clipPath><clipPath id="clipPath502" clipPathUnits="userSpaceOnUse"><path id="path500-0" d="M 2200,3017.04 V 6928.13 H 4300 V 4591.8 L 2200,3017.04"/></clipPath><clipPath id="clipPath508" clipPathUnits="userSpaceOnUse"><path id="path506-4" d="M 2194.2,4796.83 V 3726.27 h 1759.68 v 1070.56 z"/></clipPath><clipPath id="clipPath520" clipPathUnits="userSpaceOnUse"><path id="path518-9" d="M 2200,3017.04 V 6928.13 H 4300 V 4591.8 L 2200,3017.04"/></clipPath><clipPath id="clipPath526" clipPathUnits="userSpaceOnUse"><path id="path524-6" d="m 3949.08,4796.83 v -715.31 h 355.29 v 715.31 z"/></clipPath><clipPath id="clipPath538" clipPathUnits="userSpaceOnUse"><path id="path536-6" d="M 2200,3017.04 V 6928.13 H 4300 V 4591.8 L 2200,3017.04"/></clipPath><clipPath id="clipPath544" clipPathUnits="userSpaceOnUse"><path id="path542-9" d="m 2194.2,3731.07 v -717.71 h 705.79 v 717.71 z"/></clipPath><clipPath id="clipPath556" clipPathUnits="userSpaceOnUse"><path id="path554-7" d="M 2200,3017.04 V 6928.13 H 4300 V 4591.8 L 2200,3017.04"/></clipPath><clipPath id="clipPath562" clipPathUnits="userSpaceOnUse"><path id="path560-2" d="m 2895.19,3731.07 v -362.46 h 355.29 v 362.46 z"/></clipPath><clipPath id="clipPath574" clipPathUnits="userSpaceOnUse"><path id="path572-8" d="M 4300,2420.44 H 2200 v 596.6 L 4300,4591.8 V 2420.44"/></clipPath><clipPath id="clipPath586" clipPathUnits="userSpaceOnUse"><path id="path584-3" d="m 4410,1960 h -110 v 60 h 110 v -60"/></clipPath><clipPath id="clipPath598" clipPathUnits="userSpaceOnUse"><path id="path596-9" d="m 4410,2020 h -110 v 280.17 h 110 V 2020"/></clipPath><clipPath id="clipPath610" clipPathUnits="userSpaceOnUse"><path id="path608-7" d="m 4410,2300.17 h -110 v 120.27 h 110 v -120.27"/></clipPath><clipPath id="clipPath622" clipPathUnits="userSpaceOnUse"><path id="path620-5" d="M 4410,7048.41 H 4300 V 7250 h 110 v -201.59"/></clipPath><clipPath id="clipPath634" clipPathUnits="userSpaceOnUse"><path id="path632-3" d="m 4410,6928.13 h -110 v 120.28 h 110 v -120.28"/></clipPath><clipPath id="clipPath646" clipPathUnits="userSpaceOnUse"><path id="path644-6" d="m 4300,4591.8 v 2336.33 h 110 V 4674.29 l -110,-82.49"/></clipPath><clipPath id="clipPath658" clipPathUnits="userSpaceOnUse"><path id="path656-9" d="M 4410,2420.44 H 4300 V 4591.8 l 110,82.49 V 2420.44"/></clipPath><clipPath id="clipPath610-6" clipPathUnits="userSpaceOnUse"><path id="path608-7-8" d="m 4410,2300.17 h -110 v 120.27 h 110 v -120.27"/></clipPath><clipPath id="clipPath598-2" clipPathUnits="userSpaceOnUse"><path id="path596-9-1" d="m 4410,2020 h -110 v 280.17 h 110 V 2020"/></clipPath><clipPath id="clipPath586-4" clipPathUnits="userSpaceOnUse"><path id="path584-3-8" d="m 4410,1960 h -110 v 60 h 110 v -60"/></clipPath><clipPath id="clipPath20-9" clipPathUnits="userSpaceOnUse"><path id="path18-4" d="M 0,8382.86 V 0 h 14670 v 8382.86 z"/></clipPath><clipPath id="clipPath424-1" clipPathUnits="userSpaceOnUse"><path id="path422-6" d="m 2214.63,3080.89 c -12.14,0 -24.27,0.59 -36.39,1.78 -27.16,2.66 -57.08,8.57 -84.58,20.5 0,0 -55.48,21.5 -60.56,36.15 l -53.39,-16.89 -15.17,54.86 644.46,-13.72 -170.41,-44.69 -143.99,-29.71 c -26.35,-5.43 -53.15,-8.28 -79.97,-8.28"/></clipPath><clipPath id="clipPath434-6" clipPathUnits="userSpaceOnUse"><path id="path432-2" d="M 0,8382.86 V 0 h 14670 v 8382.86 z"/></clipPath><clipPath id="clipPath20-1" clipPathUnits="userSpaceOnUse"><path id="path18-1" d="M 0,5962.8 V 0 h 5962.8 v 5962.8 z"/></clipPath><clipPath id="clipPath296" clipPathUnits="userSpaceOnUse"><path id="path294" d="M 2829.92,3705.5 H 1552.88 v 64.27 h 1277.04 v -64.27"/></clipPath></defs><metadata id="metadata5"/><g id="layer1" transform="translate(1762.6251,3033.4972)"><path d="m -1718.378,-2946.9491 v -70.0372 c 0,-3.2871 -2.6647,-5.9514 -5.9514,-5.9514 -2.1902,0 -4.0984,1.1865 -5.1315,2.9473 -1.5465,-0.911 -3.3425,-1.443 -5.2669,-1.443 -5.4424,0 -9.9013,4.1823 -10.3537,9.5074 -0.4708,-0.088 -0.9545,-0.1416 -1.4507,-0.1416 -4.3447,0 -7.867,3.5223 -7.867,7.8669 0,0.891 0.1559,1.7421 0.4269,2.5396 -4.7572,2.9621 -7.9338,8.2242 -7.9338,14.241 0,5.9936 3.1524,11.2388 7.8805,14.2061 -1.4116,2.2681 -2.2408,4.936 -2.2408,7.8037 0,8.1743 6.627,14.8013 14.802,14.8013 0.3765,0 0.7457,-0.03 1.115,-0.058 v 0.058 c 0,4.2135 3.4156,7.6287 7.63,7.6287 1.9359,0 3.6984,-0.7264 5.0436,-1.9158 0.7769,1.6684 2.4564,2.8312 4.4172,2.8312 2.697,0 4.8833,-2.1865 4.8833,-4.8837 v 0" style="fill:#f90;fill-opacity:1;fill-rule:nonzero;stroke:none;stroke-width:.09155791" id="path70-3"/><path d="m -1714.9057,-2946.9491 v -70.0372 c 0,-3.2871 2.6641,-5.9514 5.9513,-5.9514 2.1887,0 4.0975,1.1865 5.1306,2.9473 1.5463,-0.911 3.3427,-1.443 5.2679,-1.443 5.4418,0 9.9004,4.1823 10.353,9.5074 0.4715,-0.088 0.9543,-0.1416 1.4511,-0.1416 4.3434,0 7.8665,3.5223 7.8665,7.8669 0,0.891 -0.1543,1.7421 -0.4274,2.5396 4.7578,2.9621 7.9348,8.2242 7.9348,14.241 0,5.9936 -3.1534,11.2388 -7.881,14.2061 1.4115,2.2681 2.2403,4.936 2.2403,7.8037 0,8.1743 -6.6274,14.8013 -14.8011,14.8013 -0.3775,0 -0.7456,-0.03 -1.1156,-0.058 v 0.058 c 0,4.2135 -3.4169,7.6287 -7.6305,7.6287 -1.9367,0 -3.6985,-0.7264 -5.044,-1.9158 -0.7767,1.6684 -2.456,2.8312 -4.4178,2.8312 -2.6965,0 -4.8829,-2.1865 -4.8829,-4.8837 v 0" style="fill:#f90;fill-opacity:1;fill-rule:nonzero;stroke:none;stroke-width:.09155791" id="path72-9"/><path d="m -1747.1808,-3001.2878 c -1.9878,0 -3.6051,-1.618 -3.6051,-3.6047 0,-1.9879 1.6173,-3.6054 3.6051,-3.6054 1.9877,0 3.6048,1.6175 3.6048,3.6054 0,1.9867 -1.6171,3.6047 -3.6048,3.6047" style="fill:#fff;fill-opacity:1;fill-rule:nonzero;stroke:none;stroke-width:.09155791" id="path74-1"/><path d="m -1745.4068,-3004.8925 c 0,0.9787 -0.7947,1.7734 -1.774,1.7734 -0.9798,0 -1.7738,-0.7947 -1.7738,-1.7734 0,-0.9797 0.794,-1.7745 1.7738,-1.7745 0.9793,0 1.774,0.7948 1.774,1.7745" style="fill:#fff;fill-opacity:1;fill-rule:nonzero;stroke:none;stroke-width:.09155791" id="path76-0"/><path d="m -1742.9464,-2961.0024 c -1.9874,0 -3.605,-1.6178 -3.605,-3.6047 0,-1.9874 1.6176,-3.6053 3.605,-3.6053 1.9879,0 3.605,1.6179 3.605,3.6053 0,1.9869 -1.6171,3.6047 -3.605,3.6047" style="fill:#fff;fill-opacity:1;fill-rule:nonzero;stroke:none;stroke-width:.09155791" id="path78-6"/><path d="m -1741.1726,-2964.6071 c 0,0.979 -0.7942,1.7737 -1.7738,1.7737 -0.9796,0 -1.7737,-0.7947 -1.7737,-1.7737 0,-0.9794 0.7941,-1.7745 1.7737,-1.7745 0.9796,0 1.7738,0.7951 1.7738,1.7745" style="fill:#fff;fill-opacity:1;fill-rule:nonzero;stroke:none;stroke-width:.09155791" id="path80-4"/><path d="m -1727.5532,-2987.4965 c 0,0.9787 -0.7945,1.7734 -1.7741,1.7734 -0.9795,0 -1.7741,-0.7947 -1.7741,-1.7734 0,-0.9796 0.7946,-1.7743 1.7741,-1.7743 0.9796,0 1.7741,0.7947 1.7741,1.7743" style="fill:#fff;fill-opacity:1;fill-rule:nonzero;stroke:none;stroke-width:.09155791" id="path82-2"/><path d="m -1723.5477,-3006.7236 c 0,0.9788 -0.7943,1.7735 -1.7739,1.7735 -0.9796,0 -1.774,-0.7947 -1.774,-1.7735 0,-0.9799 0.7944,-1.7743 1.774,-1.7743 0.9796,0 1.7739,0.7944 1.7739,1.7743" style="fill:#fff;fill-opacity:1;fill-rule:nonzero;stroke:none;stroke-width:.09155791" id="path84-4"/><path d="m -1723.5477,-2973.5341 c 0,0.9789 -0.7943,1.7738 -1.7739,1.7738 -0.9796,0 -1.774,-0.7949 -1.774,-1.7738 0,-0.9793 0.7944,-1.7741 1.774,-1.7741 0.9796,0 1.7739,0.7948 1.7739,1.7741" style="fill:#fff;fill-opacity:1;fill-rule:nonzero;stroke:none;stroke-width:.09155791" id="path86-3"/><path d="m -1730.2999,-2951.1031 c 0,0.9794 -0.7944,1.7743 -1.774,1.7743 -0.9795,0 -1.7739,-0.7949 -1.7739,-1.7743 0,-0.9787 0.7944,-1.7736 1.7739,-1.7736 0.9796,0 1.774,0.7949 1.774,1.7736" style="fill:#fff;fill-opacity:1;fill-rule:nonzero;stroke:none;stroke-width:.09155791" id="path88-2"/><path d="m -1742.4884,-2964.6071 v -13.8993 l 7.8307,-8.5324 h 5.788 v -7.8208 h -17.8536 v -10.0329 h -0.9155 v 10.9484 h 17.8537 v 5.9898 h -5.2747 l -8.3443,9.0917 v 14.2555 h 0.9157" style="fill:#fff;fill-opacity:1;fill-rule:nonzero;stroke:none;stroke-width:.09155791" id="path90-7"/><path d="m -1732.0361,-2951.1031 v -13.6814 l 7.1724,-8.5837 v -33.3554 h -0.9156 v 33.0228 l -7.1723,8.5837 v 14.014 h 0.9155" style="fill:#fff;fill-opacity:1;fill-rule:nonzero;stroke:none;stroke-width:.09155791" id="path92-6"/><path d="m -1699.2274,-2983.892 c 1.9875,0 3.6051,-1.6177 3.6051,-3.6045 0,-1.9878 -1.6176,-3.6056 -3.6051,-3.6056 -1.9878,0 -3.6053,1.6178 -3.6053,3.6056 0,1.9868 1.6175,3.6045 3.6053,3.6045" style="fill:#fff;fill-opacity:1;fill-rule:nonzero;stroke:none;stroke-width:.09155791" id="path94-3"/><path d="m -1688.5266,-3004.8925 c 0,0.9787 0.7952,1.7734 1.7738,1.7734 0.979,0 1.774,-0.7947 1.774,-1.7734 0,-0.9797 -0.795,-1.7745 -1.774,-1.7745 -0.9786,0 -1.7738,0.7948 -1.7738,1.7745" style="fill:#fff;fill-opacity:1;fill-rule:nonzero;stroke:none;stroke-width:.09155791" id="path96-6"/><path d="m -1690.9873,-2961.0024 c 1.9877,0 3.6051,-1.6178 3.6051,-3.6047 0,-1.9874 -1.6174,-3.6053 -3.6051,-3.6053 -1.9874,0 -3.6052,1.6179 -3.6052,3.6053 0,1.9869 1.6178,3.6047 3.6052,3.6047" style="fill:#fff;fill-opacity:1;fill-rule:nonzero;stroke:none;stroke-width:.09155791" id="path98-5"/><path d="m -1692.7611,-2964.6071 c 0,0.979 0.7951,1.7737 1.7738,1.7737 0.979,0 1.774,-0.7947 1.774,-1.7737 0,-0.9794 -0.795,-1.7745 -1.774,-1.7745 -0.9787,0 -1.7738,0.7951 -1.7738,1.7745" style="fill:#fff;fill-opacity:1;fill-rule:nonzero;stroke:none;stroke-width:.09155791" id="path100-5"/><path d="m -1701.0014,-2987.4965 c 0,0.9787 0.7952,1.7734 1.774,1.7734 0.9788,0 1.7739,-0.7947 1.7739,-1.7734 0,-0.9796 -0.7951,-1.7743 -1.7739,-1.7743 -0.9788,0 -1.774,0.7947 -1.774,1.7743" style="fill:#fff;fill-opacity:1;fill-rule:nonzero;stroke:none;stroke-width:.09155791" id="path102-3"/><path d="m -1710.3861,-3006.7236 c 0,0.9788 0.7952,1.7735 1.7738,1.7735 0.979,0 1.774,-0.7947 1.774,-1.7735 0,-0.9799 -0.795,-1.7743 -1.774,-1.7743 -0.9786,0 -1.7738,0.7944 -1.7738,1.7743" style="fill:#fff;fill-opacity:1;fill-rule:nonzero;stroke:none;stroke-width:.09155791" id="path104-1"/><path d="m -1710.3861,-2973.5341 c 0,0.9789 0.7952,1.7738 1.7738,1.7738 0.979,0 1.774,-0.7949 1.774,-1.7738 0,-0.9793 -0.795,-1.7741 -1.774,-1.7741 -0.9786,0 -1.7738,0.7948 -1.7738,1.7741" style="fill:#fff;fill-opacity:1;fill-rule:nonzero;stroke:none;stroke-width:.09155791" id="path106-9"/><path d="m -1703.6335,-2951.1031 c 0,0.9794 0.7949,1.7743 1.7739,1.7743 0.9785,0 1.7736,-0.7949 1.7736,-1.7743 0,-0.9787 -0.7951,-1.7736 -1.7736,-1.7736 -0.979,0 -1.7739,0.7949 -1.7739,1.7736" style="fill:#fff;fill-opacity:1;fill-rule:nonzero;stroke:none;stroke-width:.09155791" id="path108-6"/><path d="m -1690.5295,-2964.6071 v -14.2555 l -8.344,-9.0917 h -0.3539 v 0.4578 h 0.4577 v -16.9381 h 12.0169 v -0.9157 h -12.9324 v 18.3115 h 0.4095 l 7.8304,8.5324 v 13.8993 h 0.9158" style="fill:#fff;fill-opacity:1;fill-rule:nonzero;stroke:none;stroke-width:.09155791" id="path110-2"/><path d="m -1700.9825,-2951.1031 v -14.014 l -7.1719,-8.5837 v -33.0228 h -0.9156 v 33.3554 l 7.1718,8.5837 v 13.6814 h 0.9157" style="fill:#fff;fill-opacity:1;fill-rule:nonzero;stroke:none;stroke-width:.09155791" id="path112-0"/></g></svg>