<svg xmlns="http://www.w3.org/2000/svg" xmlns:svg="http://www.w3.org/2000/svg" id="svg8" width="257.5" height="257.5" version="1.1" viewBox="0 0 68.13 68.13"><defs id="defs2"><clipPath id="clipPath20" clipPathUnits="userSpaceOnUse"><path id="path18" d="M 0,8382.86 V 0 h 14670 v 8382.86 z"/></clipPath><clipPath id="clipPath424" clipPathUnits="userSpaceOnUse"><path id="path422" d="m 2214.63,3080.89 c -12.14,0 -24.27,0.59 -36.39,1.78 -27.16,2.66 -57.08,8.57 -84.58,20.5 0,0 -55.48,21.5 -60.56,36.15 l -53.39,-16.89 -15.17,54.86 644.46,-13.72 -170.41,-44.69 -143.99,-29.71 c -26.35,-5.43 -53.15,-8.28 -79.97,-8.28"/></clipPath><clipPath id="clipPath434" clipPathUnits="userSpaceOnUse"><path id="path432" d="M 0,8382.86 V 0 h 14670 v 8382.86 z"/></clipPath><clipPath id="clipPath82" clipPathUnits="userSpaceOnUse"><path id="path80-1" d="M 4300,7250 H 2200 v 80 h 4420 v -60 H 4300 v -20"/></clipPath><clipPath id="clipPath94" clipPathUnits="userSpaceOnUse"><path id="path92-4" d="m 8710,1960 h -300 v 5310 h 300 V 1960"/></clipPath><clipPath id="clipPath106" clipPathUnits="userSpaceOnUse"><path id="path104-8" d="M 8410,1960 H 4410 v 60 h 2210 v 280.17 h 955.98 V 7048.41 H 6620 V 7270 H 8410 V 1960"/></clipPath><clipPath id="clipPath118" clipPathUnits="userSpaceOnUse"><path id="path116-9" d="M 7575.98,2300.17 H 6620 v 120.27 h 795.58 V 6928.13 H 6620 v 120.28 h 955.98 V 2300.17"/></clipPath><clipPath id="clipPath130" clipPathUnits="userSpaceOnUse"><path id="path128-5" d="m 6620,6331.54 v 596.59 h 795.58 L 6620,6331.54"/></clipPath><clipPath id="clipPath142" clipPathUnits="userSpaceOnUse"><path id="path140-3" d="M 7415.58,2420.44 H 6620 v 3911.1 l 795.58,596.59 V 2420.44"/></clipPath><clipPath id="clipPath154" clipPathUnits="userSpaceOnUse"><path id="path152-0" d="M 6620,2020 H 4410 v 280.17 H 6620 V 2020"/></clipPath><clipPath id="clipPath166" clipPathUnits="userSpaceOnUse"><path id="path164-7" d="M 6620,2300.17 H 4410 v 120.27 h 2210 v -120.27"/></clipPath><clipPath id="clipPath178" clipPathUnits="userSpaceOnUse"><path id="path176-7" d="M 6620,7048.41 H 4410 V 7250 h -110 v 20 h 2320 v -221.59"/></clipPath><clipPath id="clipPath190" clipPathUnits="userSpaceOnUse"><path id="path188-8" d="M 6620,6928.13 H 4410 v 120.28 h 2210 v -120.28"/></clipPath><clipPath id="clipPath202" clipPathUnits="userSpaceOnUse"><path id="path200-1" d="M 4410,4674.29 V 6928.13 H 6620 V 6331.54 L 4410,4674.29"/></clipPath><clipPath id="clipPath208" clipPathUnits="userSpaceOnUse"><path id="path206-1" d="M 4405.63,6933.92 V 5315.96 h 1586.83 v 1617.96 z"/></clipPath><clipPath id="clipPath220" clipPathUnits="userSpaceOnUse"><path id="path218-1" d="M 4410,4674.29 V 6928.13 H 6620 V 6331.54 L 4410,4674.29"/></clipPath><clipPath id="clipPath226" clipPathUnits="userSpaceOnUse"><path id="path224-7" d="M 5987.66,6933.92 V 5961.7 h 636.17 v 972.22 z"/></clipPath><clipPath id="clipPath238" clipPathUnits="userSpaceOnUse"><path id="path236-8" d="M 4410,4674.29 V 6928.13 H 6620 V 6331.54 L 4410,4674.29"/></clipPath><clipPath id="clipPath244" clipPathUnits="userSpaceOnUse"><path id="path242-8" d="m 5987.66,5966.51 v -328.88 h 319.29 v 328.88 z"/></clipPath><clipPath id="clipPath256" clipPathUnits="userSpaceOnUse"><path id="path254-1" d="M 4410,4674.29 V 6928.13 H 6620 V 6331.54 L 4410,4674.29"/></clipPath><clipPath id="clipPath262" clipPathUnits="userSpaceOnUse"><path id="path260-3" d="m 4405.63,5320.76 v -650.55 h 636.17 v 650.55 z"/></clipPath><clipPath id="clipPath274" clipPathUnits="userSpaceOnUse"><path id="path272-0" d="M 4410,4674.29 V 6928.13 H 6620 V 6331.54 L 4410,4674.29"/></clipPath><clipPath id="clipPath280" clipPathUnits="userSpaceOnUse"><path id="path278-5" d="m 5037,5320.76 v -328.87 h 321.69 v 328.87 z"/></clipPath><clipPath id="clipPath292" clipPathUnits="userSpaceOnUse"><path id="path290-7" d="M 6620,2420.44 H 4410 v 2253.85 l 2210,1657.25 v -3911.1"/></clipPath><clipPath id="clipPath298" clipPathUnits="userSpaceOnUse"><path id="path296-7" d="M 5987.66,6336.19 V 2416.1 h 636.17 v 3920.09 z"/></clipPath><clipPath id="clipPath310" clipPathUnits="userSpaceOnUse"><path id="path308-7" d="M 6620,2420.44 H 4410 v 2253.85 l 2210,1657.25 v -3911.1"/></clipPath><clipPath id="clipPath316" clipPathUnits="userSpaceOnUse"><path id="path314-6" d="M 5670.77,5980.91 V 2416.1 h 321.69 v 3564.81 z"/></clipPath><clipPath id="clipPath328" clipPathUnits="userSpaceOnUse"><path id="path326-2" d="M 6620,2420.44 H 4410 v 2253.85 l 2210,1657.25 v -3911.1"/></clipPath><clipPath id="clipPath334" clipPathUnits="userSpaceOnUse"><path id="path332-6" d="M 5037,5623.23 V 2416.1 h 638.57 v 3207.13 z"/></clipPath><clipPath id="clipPath346" clipPathUnits="userSpaceOnUse"><path id="path344-2" d="M 6620,2420.44 H 4410 v 2253.85 l 2210,1657.25 v -3911.1"/></clipPath><clipPath id="clipPath352" clipPathUnits="userSpaceOnUse"><path id="path350-0" d="M 4722.51,5267.95 V 2416.1 h 319.29 v 2851.85 z"/></clipPath><clipPath id="clipPath364" clipPathUnits="userSpaceOnUse"><path id="path362-1" d="M 6620,2420.44 H 4410 v 2253.85 l 2210,1657.25 v -3911.1"/></clipPath><clipPath id="clipPath370" clipPathUnits="userSpaceOnUse"><path id="path368-8" d="M 4405.63,4912.67 V 2416.1 h 321.69 v 2496.57 z"/></clipPath><clipPath id="clipPath382" clipPathUnits="userSpaceOnUse"><path id="path380-7" d="M 410,1950 H 0 V 7250 H 410 V 1950"/></clipPath><clipPath id="clipPath394" clipPathUnits="userSpaceOnUse"><path id="path392-0" d="M 4410,1950 H 410 V 7250 H 2200 V 7048.41 H 1244.03 V 2300.17 H 2200 V 2020 h 2100 v -60 h 110 v -10"/></clipPath><clipPath id="clipPath406" clipPathUnits="userSpaceOnUse"><path id="path404-3" d="M 2200,2300.17 H 1244.03 V 7048.41 H 2200 V 6928.13 H 1404.42 V 2420.44 H 2200 v -120.27"/></clipPath><clipPath id="clipPath418" clipPathUnits="userSpaceOnUse"><path id="path416-7" d="m 1404.42,2420.44 v 0 4507.69 H 2200 V 3017.04 l -795.58,-596.6"/></clipPath><clipPath id="clipPath430" clipPathUnits="userSpaceOnUse"><path id="path428" d="m 2200,2420.44 h -795.58 l 795.58,596.6 v -596.6"/></clipPath><clipPath id="clipPath442" clipPathUnits="userSpaceOnUse"><path id="path440-3" d="M 4300,2020 H 2200 v 280.17 H 4300 V 2020"/></clipPath><clipPath id="clipPath454" clipPathUnits="userSpaceOnUse"><path id="path452-1" d="M 4300,2300.17 H 2200 v 120.27 h 2100 v -120.27"/></clipPath><clipPath id="clipPath466" clipPathUnits="userSpaceOnUse"><path id="path464-5" d="M 4300,7048.41 H 2200 V 7250 h 2100 v -201.59"/></clipPath><clipPath id="clipPath478" clipPathUnits="userSpaceOnUse"><path id="path476-3" d="M 4300,6928.13 H 2200 v 120.28 h 2100 v -120.28"/></clipPath><clipPath id="clipPath490" clipPathUnits="userSpaceOnUse"><path id="path488-4" d="M 2200,4792 H 4300 V 6929 H 2200 Z"/></clipPath><clipPath id="clipPath502" clipPathUnits="userSpaceOnUse"><path id="path500-0" d="M 2200,3017.04 V 6928.13 H 4300 V 4591.8 L 2200,3017.04"/></clipPath><clipPath id="clipPath508" clipPathUnits="userSpaceOnUse"><path id="path506-4" d="M 2194.2,4796.83 V 3726.27 h 1759.68 v 1070.56 z"/></clipPath><clipPath id="clipPath520" clipPathUnits="userSpaceOnUse"><path id="path518-9" d="M 2200,3017.04 V 6928.13 H 4300 V 4591.8 L 2200,3017.04"/></clipPath><clipPath id="clipPath526" clipPathUnits="userSpaceOnUse"><path id="path524-6" d="m 3949.08,4796.83 v -715.31 h 355.29 v 715.31 z"/></clipPath><clipPath id="clipPath538" clipPathUnits="userSpaceOnUse"><path id="path536-6" d="M 2200,3017.04 V 6928.13 H 4300 V 4591.8 L 2200,3017.04"/></clipPath><clipPath id="clipPath544" clipPathUnits="userSpaceOnUse"><path id="path542-9" d="m 2194.2,3731.07 v -717.71 h 705.79 v 717.71 z"/></clipPath><clipPath id="clipPath556" clipPathUnits="userSpaceOnUse"><path id="path554-7" d="M 2200,3017.04 V 6928.13 H 4300 V 4591.8 L 2200,3017.04"/></clipPath><clipPath id="clipPath562" clipPathUnits="userSpaceOnUse"><path id="path560-2" d="m 2895.19,3731.07 v -362.46 h 355.29 v 362.46 z"/></clipPath><clipPath id="clipPath574" clipPathUnits="userSpaceOnUse"><path id="path572-8" d="M 4300,2420.44 H 2200 v 596.6 L 4300,4591.8 V 2420.44"/></clipPath><clipPath id="clipPath586" clipPathUnits="userSpaceOnUse"><path id="path584-3" d="m 4410,1960 h -110 v 60 h 110 v -60"/></clipPath><clipPath id="clipPath598" clipPathUnits="userSpaceOnUse"><path id="path596-9" d="m 4410,2020 h -110 v 280.17 h 110 V 2020"/></clipPath><clipPath id="clipPath610" clipPathUnits="userSpaceOnUse"><path id="path608-7" d="m 4410,2300.17 h -110 v 120.27 h 110 v -120.27"/></clipPath><clipPath id="clipPath622" clipPathUnits="userSpaceOnUse"><path id="path620-5" d="M 4410,7048.41 H 4300 V 7250 h 110 v -201.59"/></clipPath><clipPath id="clipPath634" clipPathUnits="userSpaceOnUse"><path id="path632-3" d="m 4410,6928.13 h -110 v 120.28 h 110 v -120.28"/></clipPath><clipPath id="clipPath646" clipPathUnits="userSpaceOnUse"><path id="path644-6" d="m 4300,4591.8 v 2336.33 h 110 V 4674.29 l -110,-82.49"/></clipPath><clipPath id="clipPath658" clipPathUnits="userSpaceOnUse"><path id="path656-9" d="M 4410,2420.44 H 4300 V 4591.8 l 110,82.49 V 2420.44"/></clipPath><clipPath id="clipPath610-6" clipPathUnits="userSpaceOnUse"><path id="path608-7-8" d="m 4410,2300.17 h -110 v 120.27 h 110 v -120.27"/></clipPath><clipPath id="clipPath598-2" clipPathUnits="userSpaceOnUse"><path id="path596-9-1" d="m 4410,2020 h -110 v 280.17 h 110 V 2020"/></clipPath><clipPath id="clipPath586-4" clipPathUnits="userSpaceOnUse"><path id="path584-3-8" d="m 4410,1960 h -110 v 60 h 110 v -60"/></clipPath><clipPath id="clipPath20-9" clipPathUnits="userSpaceOnUse"><path id="path18-4" d="M 0,8382.86 V 0 h 14670 v 8382.86 z"/></clipPath><clipPath id="clipPath424-1" clipPathUnits="userSpaceOnUse"><path id="path422-6" d="m 2214.63,3080.89 c -12.14,0 -24.27,0.59 -36.39,1.78 -27.16,2.66 -57.08,8.57 -84.58,20.5 0,0 -55.48,21.5 -60.56,36.15 l -53.39,-16.89 -15.17,54.86 644.46,-13.72 -170.41,-44.69 -143.99,-29.71 c -26.35,-5.43 -53.15,-8.28 -79.97,-8.28"/></clipPath><clipPath id="clipPath434-6" clipPathUnits="userSpaceOnUse"><path id="path432-2" d="M 0,8382.86 V 0 h 14670 v 8382.86 z"/></clipPath></defs><metadata id="metadata5"/><g id="layer1" transform="translate(1837.2886,3092.6312)"><g id="g7371"><rect id="rect7356" width="48.777" height="18.909" x="-1828.196" y="-3086.757" ry="2.071" style="opacity:1;fill:#f90;fill-opacity:1;stroke:none;stroke-width:1.08096969;stroke-linecap:butt;stroke-linejoin:miter;stroke-miterlimit:4;stroke-dasharray:none;stroke-dashoffset:5.84653997;stroke-opacity:1;paint-order:markers stroke fill"/><circle id="path7358" cx="-1823.853" cy="-3072.525" r="2.071" style="opacity:1;fill:#fff;fill-opacity:1;stroke:none;stroke-width:1;stroke-linecap:butt;stroke-linejoin:miter;stroke-miterlimit:4;stroke-dasharray:none;stroke-dashoffset:5.84653997;stroke-opacity:1;paint-order:markers stroke fill"/><rect style="opacity:1;fill:#fff;fill-opacity:1;stroke:none;stroke-width:.12984517;stroke-linecap:butt;stroke-linejoin:miter;stroke-miterlimit:4;stroke-dasharray:none;stroke-dashoffset:5.84653997;stroke-opacity:1;paint-order:markers stroke fill" id="rect7360" width="10.766" height="1.236" x="-1793.013" y="-3077.202" ry=".618"/><rect id="rect7362" width="10.766" height="1.236" x="-1793.013" y="-3074.758" ry=".618" style="opacity:1;fill:#fff;fill-opacity:1;stroke:none;stroke-width:.12984517;stroke-linecap:butt;stroke-linejoin:miter;stroke-miterlimit:4;stroke-dasharray:none;stroke-dashoffset:5.84653997;stroke-opacity:1;paint-order:markers stroke fill"/><rect style="opacity:1;fill:#fff;fill-opacity:1;stroke:none;stroke-width:.12984517;stroke-linecap:butt;stroke-linejoin:miter;stroke-miterlimit:4;stroke-dasharray:none;stroke-dashoffset:5.84653997;stroke-opacity:1;paint-order:markers stroke fill" id="rect7364" width="10.766" height="1.236" x="-1793.013" y="-3072.62" ry=".618"/></g><g id="g7383" transform="translate(0,20.108333)"><rect style="opacity:1;fill:#f90;fill-opacity:1;stroke:none;stroke-width:1.08096969;stroke-linecap:butt;stroke-linejoin:miter;stroke-miterlimit:4;stroke-dasharray:none;stroke-dashoffset:5.84653997;stroke-opacity:1;paint-order:markers stroke fill" id="rect7373" width="48.777" height="18.909" x="-1828.196" y="-3086.757" ry="2.071"/><circle style="opacity:1;fill:#fff;fill-opacity:1;stroke:none;stroke-width:1;stroke-linecap:butt;stroke-linejoin:miter;stroke-miterlimit:4;stroke-dasharray:none;stroke-dashoffset:5.84653997;stroke-opacity:1;paint-order:markers stroke fill" id="circle7375" cx="-1823.853" cy="-3072.525" r="2.071"/><rect id="rect7377" width="10.766" height="1.236" x="-1793.013" y="-3077.202" ry=".618" style="opacity:1;fill:#fff;fill-opacity:1;stroke:none;stroke-width:.12984517;stroke-linecap:butt;stroke-linejoin:miter;stroke-miterlimit:4;stroke-dasharray:none;stroke-dashoffset:5.84653997;stroke-opacity:1;paint-order:markers stroke fill"/><rect style="opacity:1;fill:#fff;fill-opacity:1;stroke:none;stroke-width:.12984517;stroke-linecap:butt;stroke-linejoin:miter;stroke-miterlimit:4;stroke-dasharray:none;stroke-dashoffset:5.84653997;stroke-opacity:1;paint-order:markers stroke fill" id="rect7379" width="10.766" height="1.236" x="-1793.013" y="-3074.758" ry=".618"/><rect id="rect7381" width="10.766" height="1.236" x="-1793.013" y="-3072.62" ry=".618" style="opacity:1;fill:#fff;fill-opacity:1;stroke:none;stroke-width:.12984517;stroke-linecap:butt;stroke-linejoin:miter;stroke-miterlimit:4;stroke-dasharray:none;stroke-dashoffset:5.84653997;stroke-opacity:1;paint-order:markers stroke fill"/></g><g id="g7395" transform="translate(0,40.216667)"><rect id="rect7385" width="48.777" height="18.909" x="-1828.196" y="-3086.757" ry="2.071" style="opacity:1;fill:#f90;fill-opacity:1;stroke:none;stroke-width:1.08096969;stroke-linecap:butt;stroke-linejoin:miter;stroke-miterlimit:4;stroke-dasharray:none;stroke-dashoffset:5.84653997;stroke-opacity:1;paint-order:markers stroke fill"/><circle id="circle7387" cx="-1823.853" cy="-3072.525" r="2.071" style="opacity:1;fill:#fff;fill-opacity:1;stroke:none;stroke-width:1;stroke-linecap:butt;stroke-linejoin:miter;stroke-miterlimit:4;stroke-dasharray:none;stroke-dashoffset:5.84653997;stroke-opacity:1;paint-order:markers stroke fill"/><rect style="opacity:1;fill:#fff;fill-opacity:1;stroke:none;stroke-width:.12984517;stroke-linecap:butt;stroke-linejoin:miter;stroke-miterlimit:4;stroke-dasharray:none;stroke-dashoffset:5.84653997;stroke-opacity:1;paint-order:markers stroke fill" id="rect7389" width="10.766" height="1.236" x="-1793.013" y="-3077.202" ry=".618"/><rect id="rect7391" width="10.766" height="1.236" x="-1793.013" y="-3074.758" ry=".618" style="opacity:1;fill:#fff;fill-opacity:1;stroke:none;stroke-width:.12984517;stroke-linecap:butt;stroke-linejoin:miter;stroke-miterlimit:4;stroke-dasharray:none;stroke-dashoffset:5.84653997;stroke-opacity:1;paint-order:markers stroke fill"/><rect style="opacity:1;fill:#fff;fill-opacity:1;stroke:none;stroke-width:.12984517;stroke-linecap:butt;stroke-linejoin:miter;stroke-miterlimit:4;stroke-dasharray:none;stroke-dashoffset:5.84653997;stroke-opacity:1;paint-order:markers stroke fill" id="rect7393" width="10.766" height="1.236" x="-1793.013" y="-3072.62" ry=".618"/></g><rect style="opacity:1;fill:#fff;fill-opacity:1;stroke:none;stroke-width:1.09137857;stroke-linecap:butt;stroke-linejoin:miter;stroke-miterlimit:4;stroke-dasharray:none;stroke-dashoffset:5.84653997;stroke-opacity:1;paint-order:markers stroke fill" id="rect7397" width="93.284" height="3.066" x="-934.303" y="3436.271" transform="rotate(135)"/></g></svg>